<svg xmlns="http://www.w3.org/2000/svg" version="1.1" xmlns:xlink="http://www.w3.org/1999/xlink" xmlns:svgjs="http://svgjs.dev/svgjs" width="1500" height="935" viewBox="0 0 1500 935"><g transform="matrix(1,0,0,1,-0.9090909090909918,0.3785425101214628)"><svg viewBox="0 0 396 247" data-background-color="#ffffff" preserveAspectRatio="xMidYMid meet" height="935" width="1500" xmlns="http://www.w3.org/2000/svg" xmlns:xlink="http://www.w3.org/1999/xlink"><g id="tight-bounds" transform="matrix(1,0,0,1,0.2400000000000091,-0.09999999999999432)"><svg viewBox="0 0 395.52 247.2" height="247.2" width="395.52"><g><svg></svg></g><g><svg viewBox="0 0 395.52 247.2" height="247.2" width="395.52"><g transform="matrix(1,0,0,1,132.25493412462907,47.215199999999996)"><svg viewBox="0 0 131.01013175074183 152.7696" height="152.7696" width="131.01013175074183"><g><svg viewBox="0 0 131.01013175074183 152.7696" height="152.7696" width="131.01013175074183"><g><svg viewBox="0 0 131.01013175074183 152.7696" height="152.7696" width="131.01013175074183"><g><svg viewBox="0 0 131.01013175074183 152.7696" height="152.7696" width="131.01013175074183"><g id="textblocktransform"><svg viewBox="0 0 131.01013175074183 152.7696" height="152.7696" width="131.01013175074183" id="textblock"><g><svg viewBox="0 0 131.01013175074183 152.7696" height="152.7696" width="131.01013175074183"><g transform="matrix(1,0,0,1,0,0)"><svg width="131.01013175074183" viewBox="1.75 -33.7 28.9 33.7" height="152.7696" data-palette-color="#bb84e8"><path d="M10.9-14.2L10.25-12.3 22.2-12.3 21.55-14.25 16.3-30.45Q15.7-28.3 10.9-14.2L10.9-14.2ZM30.65 0L26.3 0 23.35-8.85 9.1-8.85 6.1 0 1.75 0 13.5-33.7 19.1-33.7 30.65 0Z" opacity="1" transform="matrix(1,0,0,1,0,0)" fill="#bb84e8" class="wordmark-text-0" data-fill-palette-color="primary" id="text-0"></path></svg></g></svg></g></svg></g></svg></g></svg></g></svg></g></svg></g><g><path d="M189.105 0c30.402 0 58.24 10.976 79.768 29.183l-11.147 0c-19.26-14.022-42.974-22.294-68.621-22.295-25.647 0-49.361 8.272-68.621 22.295l-11.147 0c21.528-18.206 49.366-29.183 79.768-29.183zM189.105 247.2c-30.402 0-58.24-10.976-79.768-29.183l11.147 0c19.26 14.022 42.974 22.294 68.621 22.295 25.647 0 49.361-8.272 68.621-22.295l11.147 0c-21.528 18.206-49.366 29.183-79.768 29.183z" fill="#bb84e8" stroke="transparent" data-fill-palette-color="tertiary"></path></g></svg></g><defs></defs></svg><rect width="395.52" height="247.2" fill="none" stroke="none" visibility="hidden"></rect></g></svg></g></svg>